ModelForces
version=1
nRows=4
nColumns=157
inDegrees=no

This file contains the forces exerted on a model during a simulation.

A force is a generalized force, meaning that it can be either a force (N) or a torque (Nm).

Units are S.I. units (second, meters, Newtons, ...)
Angles are in degrees.

endheader
time	glut_med1_r	glut_med2_r	glut_med3_r	glut_min1_r	glut_min2_r	glut_min3_r	semimem_r	semiten_r	bifemlh_r	bifemsh_r	sar_r	add_long_r	add_brev_r	add_mag1_r	add_mag2_r	add_mag3_r	tfl_r	pect_r	grac_r	glut_max1_r	glut_max2_r	glut_max3_r	iliacus_r	psoas_r	quad_fem_r	gem_r	peri_r	rect_fem_r	vas_med_r	vas_int_r	vas_lat_r	med_gas_r	lat_gas_r	soleus_r	tib_post_r	flex_dig_r	flex_hal_r	tib_ant_r	per_brev_r	per_long_r	per_tert_r	ext_dig_r	ext_hal_r	glut_med1_l	glut_med2_l	glut_med3_l	glut_min1_l	glut_min2_l	glut_min3_l	semimem_l	semiten_l	bifemlh_l	bifemsh_l	sar_l	add_long_l	add_brev_l	add_mag1_l	add_mag2_l	add_mag3_l	tfl_l	pect_l	grac_l	glut_max1_l	glut_max2_l	glut_max3_l	iliacus_l	psoas_l	quad_fem_l	gem_l	peri_l	rect_fem_l	vas_med_l	vas_int_l	vas_lat_l	med_gas_l	lat_gas_l	soleus_l	tib_post_l	flex_dig_l	flex_hal_l	tib_ant_l	per_brev_l	per_long_l	per_tert_l	ext_dig_l	ext_hal_l	ercspn_r	ercspn_l	intobl_r	intobl_l	extobl_r	extobl_l	femur_lat_meniscii_r.femur_lat_r.force.X	femur_lat_meniscii_r.femur_lat_r.force.Y	femur_lat_meniscii_r.femur_lat_r.force.Z	femur_lat_meniscii_r.femur_lat_r.torque.X	femur_lat_meniscii_r.femur_lat_r.torque.Y	femur_lat_meniscii_r.femur_lat_r.torque.Z	femur_lat_meniscii_r.meniscus_lat_r.force.X	femur_lat_meniscii_r.meniscus_lat_r.force.Y	femur_lat_meniscii_r.meniscus_lat_r.force.Z	femur_lat_meniscii_r.meniscus_lat_r.torque.X	femur_lat_meniscii_r.meniscus_lat_r.torque.Y	femur_lat_meniscii_r.meniscus_lat_r.torque.Z	femur_med_meniscii_r.femur_med_r.force.X	femur_med_meniscii_r.femur_med_r.force.Y	femur_med_meniscii_r.femur_med_r.force.Z	femur_med_meniscii_r.femur_med_r.torque.X	femur_med_meniscii_r.femur_med_r.torque.Y	femur_med_meniscii_r.femur_med_r.torque.Z	femur_med_meniscii_r.meniscus_med_r.force.X	femur_med_meniscii_r.meniscus_med_r.force.Y	femur_med_meniscii_r.meniscus_med_r.force.Z	femur_med_meniscii_r.meniscus_med_r.torque.X	femur_med_meniscii_r.meniscus_med_r.torque.Y	femur_med_meniscii_r.meniscus_med_r.torque.Z	femur_med_tibia_r.tibia_upper_r.force.X	femur_med_tibia_r.tibia_upper_r.force.Y	femur_med_tibia_r.tibia_upper_r.force.Z	femur_med_tibia_r.tibia_upper_r.torque.X	femur_med_tibia_r.tibia_upper_r.torque.Y	femur_med_tibia_r.tibia_upper_r.torque.Z	femur_med_tibia_r.femur_med_r.force.X	femur_med_tibia_r.femur_med_r.force.Y	femur_med_tibia_r.femur_med_r.force.Z	femur_med_tibia_r.femur_med_r.torque.X	femur_med_tibia_r.femur_med_r.torque.Y	femur_med_tibia_r.femur_med_r.torque.Z	femur_lat_tibia_r.tibia_upper_r.force.X	femur_lat_tibia_r.tibia_upper_r.force.Y	femur_lat_tibia_r.tibia_upper_r.force.Z	femur_lat_tibia_r.tibia_upper_r.torque.X	femur_lat_tibia_r.tibia_upper_r.torque.Y	femur_lat_tibia_r.tibia_upper_r.torque.Z	femur_lat_tibia_r.femur_lat_r.force.X	femur_lat_tibia_r.femur_lat_r.force.Y	femur_lat_tibia_r.femur_lat_r.force.Z	femur_lat_tibia_r.femur_lat_r.torque.X	femur_lat_tibia_r.femur_lat_r.torque.Y	femur_lat_tibia_r.femur_lat_r.torque.Z	aACL_R	pACL_R	aPCL_R	pPCL_R	aMCL_R	mMCL_R	pMCL_R	aLCL_R	mLCL_R	pLCL_R	ground_prescribedForce_fx	ground_prescribedForce_fy	ground_prescribedForce_fz	ground_prescribedForce_px	ground_prescribedForce_py	ground_prescribedForce_pz
      0.11677195	     14.91516872	     27.70102075	    143.05885927	      4.74251855	      5.32535377	     11.09946864	    133.64013989	    146.08767736	    216.32132264	    212.14534705	     92.63194886	      8.86475167	      7.83398731	     20.00000888	     16.36849081	     84.15185123	      0.00000000	      3.02800217	     91.48157875	     10.46156789	     15.71631487	     59.87018116	      9.72151229	      9.28271072	    190.46009051	     37.16313982	     74.45875949	     20.46711365	     39.82429986	     42.28017729	     56.12895483	      0.00000000	      0.00000000	      0.00000000	      0.00000000	      0.00000000	      0.00000000	     34.07582618	      2.28913106	      2.96405119	     16.29108392	     33.17420553	      8.53050823	     14.97292698	     10.72040563	     11.56344696	      4.90105092	      5.62934413	      6.32418255	     18.93885946	      8.05829809	     16.35989525	     13.48714620	      2.79331934	     10.69901492	      7.58998129	      5.50579064	      4.69682954	      8.04724791	      6.61583620	      4.14411822	      2.89555456	      6.93132496	     10.54931761	      7.95565403	     31.95043437	     23.54965012	      6.77402405	      4.38465452	      9.20639056	     22.55911910	     12.70120079	     14.72759400	     15.82153732	     32.82399171	     15.26554209	     70.10224027	     59.03804235	      7.48697390	      7.34756146	     17.54239187	      9.48139374	     23.53899285	      3.63791072	     11.57958968	      3.61353217	     46.15635252	     46.15635252	     17.46480929	     17.46480929	     34.47944091	     34.47944091	    -86.71932785	    340.80307460	     29.15826023	     -8.45451819	    -13.89175877	    137.82291766	     86.71932785	   -340.80307460	    -29.15826023	     10.14227913	      2.97028154	     -5.15263885	   -120.82914004	     96.96504706	     78.42758451	      2.45796981	    -29.15708704	     39.80367239	    120.82914004	    -96.96504706	    -78.42758451	     -0.54017301	     -0.57821993	     -0.08536158	    637.78765177	   -938.17250600	    225.83145510	    -18.97959165	    -15.12921673	     -9.65496649	   -637.78765177	    938.17250600	   -225.83145510	     17.35110988	    103.90454365	    383.05377603	      0.00000000	      0.00000000	      0.00000000	      0.00000000	      0.00000000	      0.00000000	      0.00000000	      0.00000000	      0.00000000	      0.00000000	      0.00000000	      0.00000000	      0.00000000	      0.00000000	    930.32354231	    574.46476265	     40.86080181	      0.00000000	      0.00000000	      0.00000000	      0.00000000	      0.00000000	      0.00000000	      0.00000000	      0.00000000	      0.00000000	      0.00000000	      0.00000000
      0.11718105	     14.87463211	     27.67587792	    143.03822984	      4.73077588	      5.31184109	     11.08367740	    133.76182242	    146.17254087	    216.82007141	    212.15627402	     92.59244203	      8.84181136	      7.81474485	     19.98348243	     16.35305492	     84.13515884	      0.00000000	      3.02047761	     91.51229834	     10.43410845	     15.67499923	     59.84902669	      9.69639710	      9.25810468	    190.45009235	     37.15789388	     74.44394786	     20.50023183	     39.80616654	     42.26685858	     56.10930266	      0.00000000	      0.00000000	      0.00000000	      0.00000000	      0.00000000	      0.00000000	     34.15134633	      2.23755128	      2.88236647	     17.50686477	     33.46100301	      8.59801545	     14.93222644	     10.69279953	     11.53334714	      4.88890674	      5.61597128	      6.30702066	     18.88502515	      8.03649892	     16.31347527	     13.45298914	      2.78642929	     10.67117629	      7.57134476	      5.49164586	      4.68451172	      8.02503066	      6.60202284	      4.13377456	      2.88829194	      6.91335879	     10.52193199	      7.93474578	     31.89896321	     23.49102596	      6.75689315	      4.37612066	      9.17999538	     22.49524386	     12.66747294	     14.68801563	     15.77892041	     32.73040745	     15.22187479	     69.90062508	     58.94763948	      7.46552379	      7.32640057	     17.49313994	      9.45412529	     23.48058414	      3.62888596	     11.54597979	      3.60304973	     46.04174086	     46.04174086	     17.41839926	     17.41839926	     34.43682519	     34.43682519	    -94.22501169	    348.94465328	     32.94860762	     -8.69371822	    -15.60113290	    140.99744441	     94.22501169	   -348.94465328	    -32.94860762	     10.48671399	      3.24511584	     -5.01260436	   -115.31795198	     89.19182040	     76.79978883	      2.23802484	    -28.63153094	     36.57174204	    115.31795198	    -89.19182040	    -76.79978883	     -0.37034112	     -0.50203530	      0.06707314	    637.90595429	   -947.88612467	    227.16190654	    -19.18187516	    -15.12724074	     -9.68225379	   -637.90595429	    947.88612467	   -227.16190654	     17.52543860	    104.42489701	    386.94911775	      0.00000000	      0.00000000	      0.00000000	      0.00000000	      0.00000000	      0.00000000	      0.00000000	      0.00000000	      0.00000000	      0.00000000	      0.00000000	      0.00000000	      0.00000000	      0.00000000	    935.99700186	    577.61305954	     40.74535412	      0.00000000	      0.00000000	      0.00000000	      0.00000000	      0.00000000	      0.00000000	      0.00000000	      0.00000000	      0.00000000	      0.00000000	      0.00000000
      0.11790948	     14.80301358	     27.63145959	    143.00178026	      4.71002784	      5.28796693	     11.05578505	    134.08422757	    146.40128389	    217.85534651	    212.46292572	     92.57251378	      8.80128281	      7.78074465	     19.95428652	     16.32578831	     84.10567072	      0.00000000	      3.00718289	     91.61756710	     10.38559533	     15.60200608	     59.81165426	      9.65202833	      9.21463762	    190.43242581	     37.14862577	     74.41779035	     20.55675715	     39.59728491	     42.15575163	     56.02971356	      0.00000000	      0.00000000	      0.00000000	      0.00000000	      0.00000000	      0.00000000	     34.27955940	      2.14698053	      2.74104877	     10.63367497	     33.96705971	      8.71591542	     14.86031824	     10.64402638	     11.48016923	      4.86744930	      5.59234486	      6.27669977	     18.78987224	      7.99798554	     16.23143952	     13.39264081	      2.77425517	     10.62199321	      7.53841518	      5.46665599	      4.66275031	      7.98577644	      6.57761691	      4.11549889	      2.87546009	      6.88161870	     10.47355071	      7.89780780	     31.80804142	     23.38746304	      6.72662620	      4.36104647	      9.13333685	     22.38236543	     12.60789081	     14.61809714	     15.70363729	     32.56494278	     15.14466967	     69.54423490	     58.78790842	      7.42758152	      7.28897620	     17.40611089	      9.40593304	     23.37737816	      3.61294325	     11.48660356	      3.58453603	     45.83923551	     45.83923551	     17.33640599	     17.33640599	     34.36155062	     34.36155062	    -89.37463054	    350.20067027	     32.09875818	     -8.72245363	    -15.14799108	    141.50690699	     89.37463054	   -350.20067027	    -32.09875818	     10.50455956	      3.09809284	     -5.07927705	   -113.11903789	     93.69477560	     75.03328064	      2.37295398	    -27.93714957	     38.44835992	    113.11903789	    -93.69477560	    -75.03328064	     -0.51323146	     -0.53515657	     -0.09102927	    632.86332095	   -959.96554820	    228.66817284	    -19.46355087	    -15.04018562	     -9.72227639	   -632.86332095	    959.96554820	   -228.66817284	     17.75805987	    104.92102650	    391.76868145	      0.00000000	      0.00000000	      0.00000000	      0.00000000	      0.00000000	      0.00000000	      0.00000000	      0.00000000	      0.00000000	      0.00000000	      0.00000000	      0.00000000	      0.00000000	      0.00000000	    946.05817962	    583.34321891	     40.81701201	      0.00000000	      0.00000000	      0.00000000	      0.00000000	      0.00000000	      0.00000000	      0.00000000	      0.00000000	      0.00000000	      0.00000000	      0.00000000
      0.11798233	     14.79589109	     27.62704238	    142.99815517	      4.70796432	      5.28559261	     11.05301164	    134.12095910	    146.42523169	    217.96558142	    212.48994682	     92.56820559	      8.79725233	      7.77736308	     19.95138314	     16.32307698	     84.10273835	      0.00000000	      3.00586069	     91.62747948	     10.38077076	     15.59474700	     59.80793773	      9.64761611	      9.21031522	    190.43066872	     37.14770406	     74.41518974	     20.56493367	     39.66571029	     42.18896115	     56.04653180	      0.00000000	      0.00000000	      0.00000000	      0.00000000	      0.00000000	      0.00000000	     34.29571559	      2.13785670	      2.72705087	     14.67164212	     34.02460478	      8.73006243	     14.85316693	     10.63917588	     11.47488075	      4.86531524	      5.58999521	      6.27368435	     18.78040641	      7.99415541	     16.22327944	     13.38663907	      2.77304438	     10.61710201	      7.53514009	      5.46417077	      4.66058621	      7.98187247	      6.57518967	      4.11368131	      2.87418391	      6.87846226	     10.46873935	      7.89413443	     31.79900029	     23.37716451	      6.72361609	      4.35954755	      9.12869492	     22.37113780	     12.60196583	     14.61114421	     15.69615111	     32.54847860	     15.13698771	     69.50877886	     58.77202238	      7.42380495	      7.28525163	     17.39745493	      9.40113922	     23.36711344	      3.61135787	     11.48069889	      3.58269527	     45.81909528	     45.81909528	     17.32825187	     17.32825187	     34.35406573	     34.35406573	    -88.94162580	    351.82527707	     32.07840519	     -8.76065308	    -15.12719157	    142.16535637	     88.94162580	   -351.82527707	    -32.07840519	     10.54776564	      3.08324722	     -5.11637499	   -107.05816362	     86.78382402	     71.78187075	      2.18646684	    -26.76910961	     35.63759327	    107.05816362	    -86.78382402	    -71.78187075	     -0.41505092	     -0.47409117	     -0.05878137	    631.59087679	   -960.38424875	    228.54505957	    -19.47325350	    -15.01278529	     -9.72476682	   -631.59087679	    960.38424875	   -228.54505957	     17.76601270	    104.84438011	    391.93003774	      0.00000000	      0.00000000	      0.00000000	      0.00000000	      0.00000000	      0.00000000	      0.00000000	      0.00000000	      0.00000000	      0.00000000	      0.00000000	      0.00000000	      0.00000000	      0.00000000	    947.10685620	    584.04544051	     40.85971240	      0.00000000	      0.00000000	      0.00000000	      0.00000000	      0.00000000	      0.00000000	      0.00000000	      0.00000000	      0.00000000	      0.00000000	      0.00000000
